PathFileType	3	(X/Y/Z)	RCH0000002 BBF 12.c3d
DataRate	CameraRate	NumFrames	NumMarkers	Units	OrigDataRate	OrigDataStartFrame	OrigNumFrames
100.0	100.0	8	23	mm	100.0	210	406
Frame#	Time	T10			RPSI			LPAT			LANK			LMED			LTOE			RPAT			RKNE			RANK			RMED			RTOE			LKNE			RHEE			RASI			MAN			LHEE			LASI			T2			LPSI			RTHI			LTHI			RTIB			LTIB			
		X1	Y1	Z1	X2	Y2	Z2	X3	Y3	Z3	X4	Y4	Z4	X5	Y5	Z5	X6	Y6	Z6	X7	Y7	Z7	X8	Y8	Z8	X9	Y9	Z9	X10	Y10	Z10	X11	Y11	Z11	X12	Y12	Z12	X13	Y13	Z13	X14	Y14	Z14	X15	Y15	Z15	X16	Y16	Z16	X17	Y17	Z17	X18	Y18	Z18	X19	Y19	Z19	X20	Y20	Z20	X21	Y21	Z21	X22	Y22	Z22	X23	Y23	Z23	

210	2.090	-1119.54478	-86.66020	815.42520	-1132.25902	-122.44487	718.61508	-888.93723	-32.67149	445.27077	-1032.72782	44.84630	150.66742	-1020.91651	-25.93307	157.14052	-983.27855	13.50495	133.04288	-1030.95894	-125.07838	385.15444	-1072.84796	-182.28130	354.10717	-1142.39499	-191.38809	86.98171	-1166.36724	-128.16317	103.59899	-1109.32598	-144.44372	72.78655	-924.81050	23.51558	395.93283	-1189.83498	-173.76459	125.12675	-1020.00955	-182.13529	679.94236	-978.00091	-76.62027	975.52407	-1060.39211	-0.79335	183.61949	-1017.60478	-6.29555	664.01836	-1109.51323	-99.33117	1009.29545	-1132.94369	-52.20393	707.98638	-1044.09081	-252.27701	461.88982	-988.26386	88.27234	506.79539	-1092.88497	-252.96555	238.96937	-970.13448	94.89003	300.46716	
211	2.100	-1111.29221	-85.59897	815.35577	-1124.52153	-121.11630	718.18577	-875.94848	-33.42207	448.58588	-1010.05807	45.59361	150.19952	-998.80672	-25.31370	156.71884	-960.27410	13.97523	133.93631	-1027.33480	-126.77469	384.54395	-1070.20668	-183.48932	354.32167	-1141.78498	-191.43790	87.40041	-1165.14010	-128.11213	104.38543	-1108.54707	-144.64616	72.84192	-910.14898	22.96879	398.55561	-1188.76834	-173.60404	126.02634	-1013.03619	-182.71909	680.27562	-968.39347	-75.83874	974.57630	-1038.99144	0.03964	182.02337	-1007.89473	-7.02353	663.59766	-1099.70527	-98.56687	1009.27258	-1124.27998	-50.93166	707.09844	-1040.60900	-253.39285	461.90694	-975.61954	87.92358	508.23308	-1091.77722	-253.79523	238.97824	-952.03003	94.87636	301.97262	
212	2.110	-1102.90435	-84.46327	814.95099	-1116.50399	-119.80808	717.52318	-863.59475	-34.44567	450.92163	-987.74627	46.38850	149.11241	-977.18566	-24.66214	155.56712	-937.75058	14.43829	134.13677	-1023.56032	-128.25939	383.80805	-1067.33307	-184.58603	354.43898	-1141.23636	-191.45565	87.80056	-1163.97606	-128.02725	105.13949	-1107.82563	-144.82285	72.88089	-896.16883	22.23095	400.35622	-1187.74462	-173.39695	126.92389	-1005.76147	-183.26333	680.42116	-958.85311	-74.99497	973.39733	-1017.99776	0.94539	179.71101	-998.00169	-7.76040	662.82892	-1089.99033	-97.66212	1008.89712	-1115.37338	-49.69354	705.92850	-1036.71216	-254.37088	461.78114	-963.19602	87.37852	509.06523	-1090.55932	-254.51681	238.93098	-934.38391	94.77328	302.75848	
213	2.120	-1094.35297	-83.29112	814.24325	-1108.17096	-118.54446	716.65022	-851.90518	-35.79170	452.22291	-965.91099	47.13366	147.36136	-956.19521	-24.07125	153.65296	-915.84336	14.78259	133.58664	-1019.59562	-129.50468	382.95663	-1064.18533	-185.54363	354.46314	-1140.73409	-191.42940	88.20581	-1162.85637	-127.89155	105.87946	-1107.14957	-144.96055	72.91239	-882.91230	21.25461	401.26987	-1186.74552	-173.12416	127.84658	-998.14605	-183.77204	680.37796	-949.37346	-74.07770	972.04109	-997.53706	1.84682	176.66405	-987.91166	-8.49590	661.75381	-1080.36023	-96.61826	1008.20467	-1106.19545	-48.50749	704.51955	-1032.35242	-255.19225	461.50691	-951.00682	86.61334	509.24823	-1089.20813	-255.11057	238.84701	-917.24616	94.51124	302.75528	
214	2.130	-1085.60861	-82.11860	813.26221	-1099.49272	-117.34771	715.58655	-840.89736	-37.49496	452.45060	-944.70655	47.72345	144.91654	-936.00296	-23.63978	150.96635	-894.71701	14.89530	132.24568	-1015.37605	-130.50671	381.99499	-1060.70575	-186.34781	354.39361	-1140.24444	-191.35799	88.63768	-1161.74387	-127.70178	106.62614	-1106.49319	-145.05497	72.94177	-870.41085	20.00417	401.24549	-1185.73048	-172.78284	128.82313	-990.15624	-184.24994	680.14024	-939.94262	-73.07693	970.55672	-977.76330	2.65640	172.88740	-977.61223	-9.21973	660.41116	-1070.80186	-95.43981	1007.22881	-1096.72223	-47.38884	702.91191	-1027.49162	-255.85371	461.08033	-939.05833	85.61348	508.74687	-1087.67840	-255.57108	238.74159	-900.68250	94.02331	301.90790	
215	2.140	-1076.64174	-80.97898	812.03373	-1090.44687	-116.23873	714.34808	-830.57604	-39.57169	451.58669	-924.32214	48.05282	141.76573	-916.79592	-23.46377	147.52111	-874.55974	14.67458	130.09590	-1010.81513	-131.28371	380.92054	-1056.82300	-186.99727	354.22236	-1139.71713	-191.24957	89.11353	-1160.58463	-127.46716	107.40037	-1105.81909	-145.10979	72.96950	-858.68384	18.46035	400.25187	-1184.63828	-172.38467	129.88120	-981.76541	-184.70281	679.69731	-930.54400	-71.98452	968.98656	-958.85527	3.28110	168.40930	-967.09386	-9.92261	658.83681	-1061.29841	-94.13386	1005.99968	-1086.93604	-46.35125	701.14275	-1022.10186	-256.36628	460.49714	-927.34883	84.37583	507.54021	-1085.90485	-255.90614	238.62313	-884.77801	93.25151	300.18153	
216	2.150	-1067.42428	-79.90260	810.57981	-1081.01970	-115.23800	712.94710	-820.93219	-42.01565	449.63978	-904.97563	48.02844	137.91763	-898.77098	-23.62602	143.35665	-855.57397	14.04226	127.14645	-1005.80983	-131.87217	379.72044	-1052.45611	-187.50194	353.93168	-1139.08867	-191.11898	89.64500	-1159.31072	-127.20625	108.22053	-1105.08106	-145.13462	72.99038	-847.73768	16.62431	398.28421	-1183.39022	-171.95207	131.04472	-972.95494	-185.13743	679.03387	-921.15759	-70.79467	967.36510	-941.00939	3.63035	163.28185	-956.35195	-10.59691	657.06448	-1051.83068	-92.70971	1004.54345	-1076.82737	-45.40812	699.24648	-1016.16522	-256.75242	459.75084	-915.86985	82.91084	505.62753	-1083.80639	-256.13422	238.49119	-869.63737	92.15416	297.56771	
217	2.160	-1057.93131	-78.91739	808.91925	-1071.20726	-114.36675	711.39306	-811.94280	-44.79440	446.65068	-886.90170	47.58125	133.40587	-882.12263	-24.18454	138.53998	-837.96366	12.95562	123.43812	-1000.24771	-132.32190	378.37039	-1047.51963	-187.88032	353.49327	-1138.28643	-190.98452	90.23720	-1157.84395	-126.94287	109.10040	-1104.22750	-145.14255	72.99342	-837.56543	14.52137	395.37058	-1181.89438	-171.51315	132.33166	-963.71492	-185.56095	678.13090	-911.76142	-69.50445	965.71864	-924.42834	3.62713	157.58193	-945.38925	-11.23664	655.12753	-1042.37847	-91.17874	1002.88255	-1066.39684	-44.57409	697.25574	-1009.67307	-257.04220	458.83134	-904.60944	81.24447	503.03370	-1081.29190	-256.28092	238.33563	-855.38059	90.71376	294.08992	
